<?xml version="1.0" encoding="UTF-8" standalone="no"?>
<!-- Created with Inkscape (http://www.inkscape.org/) -->
<svg
   xmlns:dc="http://purl.org/dc/elements/1.1/"
   xmlns:cc="http://web.resource.org/cc/"
   xmlns:rdf="http://www.w3.org/1999/02/22-rdf-syntax-ns#"
   xmlns:svg="http://www.w3.org/2000/svg"
   xmlns="http://www.w3.org/2000/svg"
   xmlns:xlink="http://www.w3.org/1999/xlink"
   xmlns:sodipodi="http://sodipodi.sourceforge.net/DTD/sodipodi-0.dtd"
   xmlns:inkscape="http://www.inkscape.org/namespaces/inkscape"
   width="200"
   height="200"
   id="svg2"
   sodipodi:version="0.32"
   inkscape:version="0.45.1"
   version="1.0"
   inkscape:output_extension="org.inkscape.output.svg.inkscape">
  <g
     inkscape:label="Layer 1"
     inkscape:groupmode="layer"
     id="layer1"
     transform="translate(-187.40691,-769.5453)">
    <g
       id="g3766"
       clip-path="url(#id36)"
       transform="matrix(1,0,0,-1,-184.69603,1814.5677)">
      <g
         id="g3768"
         clip-path="url(#id37)">
        <g
           id="g3770"
           transform="matrix(5.0401,0,0,4.9633,536.9738,923.9075)">
          <use
             id="use3772"
             xlink:href="#id38"
             x="0"
             y="0"
             width="744.09448"
             height="1052.3622" />
        </g>
      </g>
    </g>
    <g
       id="g9522"
       clip-path="url(#id123)"
       transform="matrix(1,0,0,-1,-184.69603,1814.5677)">
      <g
         id="g9524"
         transform="matrix(2.98877,-5.627914,-2.368079,-1.2576,127.81424,907.27368)">
        <g
           id="g9526"
           clip-path="url(#id124)">
          <g
             id="g9528"
             transform="matrix(0.461702,0,0,-0.928993,-9.701e-2,0.964531)">
            <use
               id="use9530"
               xlink:href="#id125"
               x="0"
               y="0"
               width="744.09448"
               height="1052.3622" />
          </g>
        </g>
      </g>
    </g>
    <g
       id="g9532"
       clip-path="url(#id126)"
       transform="matrix(1,0,0,-1,-184.69603,1814.5677)">
      <g
         id="g9534"
         transform="matrix(2.98877,-5.627914,-1.607287,-0.853574,125.84421,906.22748)">
        <g
           id="g9536"
           clip-path="url(#id127)">
          <g
             id="g9538"
             transform="matrix(0.592333,0,0,-1.611694,0.256922,1.09642)">
            <use
               id="use9540"
               xlink:href="#id128"
               x="0"
               y="0"
               width="744.09448"
               height="1052.3622" />
          </g>
        </g>
      </g>
    </g>
    <g
       id="g9542"
       clip-path="url(#id129)"
       transform="matrix(1,0,0,-1,-184.69603,1814.5677)">
      <g
         id="g9544"
         transform="matrix(2.98877,-5.627914,-3.64952,-1.938136,130.57352,908.73907)">
        <g
           id="g9546"
           clip-path="url(#id130)">
          <g
             id="g9548"
             transform="matrix(0.953197,0,0,-1.019833,0.156406,1.042942)">
            <use
               id="use9550"
               xlink:href="#id131"
               x="0"
               y="0"
               width="744.09448"
               height="1052.3622" />
          </g>
        </g>
      </g>
    </g>
    <g
       id="g9552"
       clip-path="url(#id132)"
       transform="matrix(1,0,0,-1,-184.69603,1814.5677)">
      <g
         id="g9554"
         transform="matrix(3.04801,0,0,-0.767771,128.26166,907.26373)">
        <g
           id="g9556"
           clip-path="url(#id133)">
          <g
             id="g9558"
             transform="matrix(0.999985,0,0,-0.751587,-3.304e-3,0.875854)">
            <use
               id="use9560"
               xlink:href="#id134"
               x="0"
               y="0"
               width="744.09448"
               height="1052.3622" />
          </g>
        </g>
      </g>
    </g>
    <g
       id="g9570"
       clip-path="url(#id138)"
       transform="matrix(1,0,0,-1,-184.69603,1814.5677)">
      <g
         id="g9572"
         transform="matrix(0,7.154098,7.154098,0,128.10525,898.52161)">
        <g
           id="g9574"
           clip-path="url(#id139)">
          <g
             id="g9576"
             transform="matrix(9.5924e-2,0,0,-0.481243,0.755779,0.228798)">
            <use
               id="use9578"
               xlink:href="#id140"
               x="0"
               y="0"
               width="744.09448"
               height="1052.3622" />
          </g>
        </g>
      </g>
    </g>
    <g
       id="g9580"
       clip-path="url(#id141)"
       transform="matrix(1,0,0,-1,-184.69603,1814.5677)">
      <g
         id="g9582"
         transform="matrix(-1.303587,5.850471,2.852159,0.635516,124.5257,901.55084)">
        <g
           id="g9584"
           clip-path="url(#id142)">
          <g
             id="g9586"
             transform="matrix(1.042439,0,0,-0.977676,-0.134702,1.010315)">
            <use
               id="use9588"
               xlink:href="#id143"
               x="0"
               y="0"
               width="744.09448"
               height="1052.3622" />
          </g>
        </g>
      </g>
    </g>
    <g
       id="g9590"
       clip-path="url(#id144)"
       transform="matrix(1,0,0,-1,-184.69603,1814.5677)">
      <g
         id="g9592"
         transform="matrix(3.042443,0,0,-0.767953,124.73013,907.26392)">
        <g
           id="g9594"
           clip-path="url(#id145)">
          <g
             id="g9596"
             transform="matrix(0.999992,0,0,-0.751556,-3.273e-3,0.875916)">
            <use
               id="use9598"
               xlink:href="#id146"
               x="0"
               y="0"
               width="744.09448"
               height="1052.3622" />
          </g>
        </g>
      </g>
    </g>
    <g
       id="g9600"
       clip-path="url(#id147)"
       transform="matrix(1,0,0,-1,-184.69603,1814.5677)">
      <g
         id="g9602"
         transform="matrix(1.094848,0,0,-0.767569,126.25134,901.79102)">
        <g
           id="g9604"
           clip-path="url(#id148)">
          <g
             id="g9606"
             transform="matrix(2.778687,0,0,-0.751404,-1.398529,0.875854)">
            <use
               id="use9608"
               xlink:href="#id149"
               x="0"
               y="0"
               width="744.09448"
               height="1052.3622" />
          </g>
        </g>
      </g>
    </g>
    <g
       id="g9610"
       clip-path="url(#id150)"
       transform="matrix(1,0,0,-1,-184.69603,1814.5677)">
      <g
         id="g9612"
         transform="matrix(-4.419651,4.419651,1.202455,1.202455,130.80536,903.25671)">
        <g
           id="g9614"
           clip-path="url(#id151)">
          <g
             id="g9616"
             transform="matrix(0.45751,0,0,-1.68158,0.273922,1.18438)">
            <use
               id="use9618"
               xlink:href="#id152"
               x="0"
               y="0"
               width="744.09448"
               height="1052.3622" />
          </g>
        </g>
      </g>
    </g>
    <g
       id="g9620"
       clip-path="url(#id153)"
       transform="matrix(1,0,0,-1,-184.69603,1814.5677)">
      <g
         id="g9622"
         transform="matrix(-4.419651,4.419651,2.627123,2.627123,128.393,900.84448)">
        <g
           id="g9624"
           clip-path="url(#id154)">
          <g
             id="g9626"
             transform="matrix(0.563894,0,0,-0.948647,-0.121582,0.974327)">
            <use
               id="use9628"
               xlink:href="#id155"
               x="0"
               y="0"
               width="744.09448"
               height="1052.3622" />
          </g>
        </g>
      </g>
    </g>
    <g
       id="g9630"
       clip-path="url(#id156)"
       transform="matrix(1,0,0,-1,-184.69603,1814.5677)">
      <g
         id="g9632"
         transform="matrix(1.098599,0,0,-0.772229,129.78348,901.79553)">
        <g
           id="g9634"
           clip-path="url(#id157)">
          <g
             id="g9636"
             transform="matrix(2.772614,0,0,-0.75296,-1.392609,0.876465)">
            <use
               id="use9638"
               xlink:href="#id158"
               x="0"
               y="0"
               width="744.09448"
               height="1052.3622" />
          </g>
        </g>
      </g>
    </g>
    <g
       id="g10128"
       clip-path="url(#id189)"
       transform="matrix(1,0,0,-1,-184.69603,1814.5677)">
      <g
         id="g10130"
         clip-path="url(#id190)">
        <g
           id="g10132"
           transform="matrix(5.0395,0,0,4.8479,279.143,797.9768)">
          <use
             id="use10134"
             xlink:href="#id191"
             x="0"
             y="0"
             width="744.09448"
             height="1052.3622" />
        </g>
      </g>
    </g>
    <g
       id="g10492"
       clip-path="url(#id223)"
       transform="matrix(1,0,0,-1,-184.69603,1814.5677)">
      <g
         id="g10494"
         clip-path="url(#id224)">
        <g
           id="g10496"
           clip-path="url(#id225)">
          <g
             id="g10498"
             transform="matrix(40.0893,0,0,20.0998,350.61,945.9702)">
            <use
               id="use10500"
               xlink:href="#id226"
               x="0"
               y="0"
               width="744.09448"
               height="1052.3622" />
          </g>
        </g>
      </g>
    </g>
    <g
       id="g10728"
       clip-path="url(#id242)"
       transform="matrix(1,0,0,-1,-184.69603,1814.5677)">
      <g
         id="g10730"
         transform="matrix(8.3998,0,0,8.3914,437.8569,826.4144)">
        <use
           id="use10732"
           xlink:href="#id243"
           x="0"
           y="0"
           width="744.09448"
           height="1052.3622" />
      </g>
    </g>
    <g
       id="g11106"
       clip-path="url(#id268)"
       transform="matrix(16.662501,0,0,-16.662501,-6012.7517,15517.275)">
      <g
         id="g11108"
         clip-path="url(#id269)">
        <g
           id="g11110"
           clip-path="url(#id270)">
          <g
             id="g11112"
             clip-path="url(#id271)">
            <g
               id="g11114"
               clip-path="url(#id272)">
              <path
                 id="path11116"
                 d="M 384.105,879.083 C 384.105,875.769 381.418,873.082 378.104,873.082 C 374.79,873.082 372.103,875.769 372.103,879.083 C 372.103,882.398 374.79,885.085 378.104,885.085 C 381.418,885.085 384.105,882.398 384.105,879.083"
                 style="fill:#555db4;fill-rule:nonzero;stroke:none" />
              <path
                 id="path11118"
                 d="M 375.561,879.373 L 375.561,880.533 L 376.198,880.533 L 376.198,877.562 L 375.561,877.562 L 375.561,878.829 L 373.73,878.829 L 373.73,877.562 L 373.123,877.562 L 373.123,880.533 L 373.73,880.533 L 373.73,879.373 L 375.561,879.373"
                 style="fill:#ffffff;fill-rule:nonzero;stroke:none" />
              <path
                 id="path11120"
                 d="M 380.011,880.532 L 380.67,880.532 L 382.484,878.51 L 382.484,880.532 L 383.085,880.532 L 383.085,877.566 L 382.499,877.566 L 380.657,879.672 L 380.657,877.568 L 380.011,877.568 L 380.011,880.532"
                 style="fill:#ffffff;fill-rule:nonzero;stroke:none" />
              <path
                 id="path11122"
                 d="M 376.63,879.769 C 376.63,879.164 377.193,878.802 378.136,878.802 C 379.081,878.802 379.044,878.5 379.044,878.401 C 379.044,878.052 378.444,878.016 378.248,878.016 C 377.402,878.016 376.939,878.512 376.92,878.533 L 376.518,878.174 C 376.543,878.145 377.151,877.476 378.248,877.476 C 379.26,877.476 379.62,877.975 379.62,878.443 C 379.62,879.039 379.121,879.342 378.136,879.342 C 377.975,879.342 377.207,879.362 377.207,879.769 C 377.207,880.042 377.632,880.163 378.069,880.163 C 378.684,880.163 379.183,879.782 379.188,879.779 L 379.514,880.209 C 379.488,880.229 378.87,880.691 378.069,880.691 C 377.352,880.691 376.63,880.406 376.63,879.769"
                 style="fill:#ffffff;fill-rule:nonzero;stroke:none" />
            </g>
          </g>
        </g>
      </g>
    </g>
    <g
       id="g11250"
       clip-path="url(#id290)"
       transform="matrix(1,0,0,-1,-184.69603,1814.5677)">
      <g
         id="g11252"
         transform="matrix(-8.678422,12.388888,14.344501,10.039913,421.36868,789.32349)">
        <g
           id="g11254"
           clip-path="url(#id291)">
          <g
             id="g11256"
             transform="matrix(1.090526,0,0,-1.094668,-0.100624,0.99128)">
            <use
               id="use11258"
               xlink:href="#id292"
               x="0"
               y="0"
               width="744.09448"
               height="1052.3622" />
          </g>
        </g>
      </g>
    </g>
    <g
       id="g11322"
       clip-path="url(#id299)"
       transform="matrix(1,0,0,-1,-184.69603,1814.5677)">
      <g
         id="g11324"
         transform="matrix(9.419251,-9.498138,-6.989892,-7.048432,211.69089,779.40576)">
        <g
           id="g11326"
           clip-path="url(#id300)">
          <g
             id="g11328"
             transform="matrix(1.151451,0,0,-1.551641,-1.7009e-2,1.202825)">
            <use
               id="use11330"
               xlink:href="#id301"
               x="0"
               y="0"
               width="744.09448"
               height="1052.3622" />
          </g>
        </g>
      </g>
    </g>
    <g
       id="g11332"
       clip-path="url(#id302)"
       transform="matrix(1,0,0,-1,-184.69603,1814.5677)">
      <g
         id="g11334"
         transform="matrix(-11.075449,-2.992517,-3.116866,11.729728,221.5865,769.21942)">
        <g
           id="g11336"
           clip-path="url(#id303)">
          <g
             id="g11338"
             transform="matrix(1.081403,0,0,-1.085418,-4.0782e-2,1.040157)">
            <use
               id="use11340"
               xlink:href="#id304"
               x="0"
               y="0"
               width="744.09448"
               height="1052.3622" />
          </g>
        </g>
      </g>
    </g>
    <g
       id="g12370"
       clip-path="url(#id349)"
       transform="matrix(1,0,0,-1,-184.69603,1814.5677)">
      <g
         id="g12372"
         transform="matrix(14.425248,-14.425248,-14.425597,-14.425597,186.89969,834.87714)">
        <g
           id="g12374"
           clip-path="url(#id350)">
          <g
             id="g12376"
             transform="matrix(0.969971,0,0,-0.969947,1.4997e-2,0.984974)">
            <use
               id="use12378"
               xlink:href="#id351"
               x="0"
               y="0"
               width="744.09448"
               height="1052.3622" />
          </g>
        </g>
      </g>
    </g>
    <g
       id="g12380"
       clip-path="url(#id352)"
       transform="matrix(1,0,0,-1,-184.69603,1814.5677)">
      <g
         id="g12382"
         transform="matrix(0,6.514376,6.637661,0,171.65855,818.68323)">
        <g
           id="g12384"
           clip-path="url(#id353)">
          <g
             id="g12386"
             transform="matrix(0.90596,0,0,-0.907677,4.6989e-2,0.953827)">
            <use
               id="use12388"
               xlink:href="#id354"
               x="0"
               y="0"
               width="744.09448"
               height="1052.3622" />
          </g>
        </g>
      </g>
    </g>
    <g
       id="g12390"
       clip-path="url(#id355)"
       transform="matrix(1,0,0,-1,-184.69603,1814.5677)">
      <g
         id="g12392"
         transform="matrix(0,6.514376,6.637967,0,195.49745,818.6828)">
        <g
           id="g12394"
           clip-path="url(#id356)">
          <g
             id="g12396"
             transform="matrix(0.90596,0,0,-0.907642,4.7058e-2,0.953825)">
            <use
               id="use12398"
               xlink:href="#id357"
               x="0"
               y="0"
               width="744.09448"
               height="1052.3622" />
          </g>
        </g>
      </g>
    </g>
    <g
       id="g14230"
       transform="matrix(21.8228,0,0,-14.534,133.28396,818.93163)">
      <use
         id="use14232"
         xlink:href="#id399"
         x="0"
         y="0"
         width="744.09448"
         height="1052.3622" />
    </g>
    <g
       id="g14242"
       clip-path="url(#id403)"
       transform="matrix(1,0,0,-1,-184.69603,1814.5677)">
      <g
         id="g14244"
         transform="matrix(5.761,0,0,8.0655,152.7613,996.3373)">
        <use
           id="use14246"
           xlink:href="#id404"
           x="0"
           y="0"
           width="744.09448"
           height="1052.3622" />
      </g>
    </g>
    <g
       id="g14288"
       clip-path="url(#id408)"
       transform="matrix(1,0,0,-1,-184.69603,1814.5677)">
      <g
         id="g14290"
         clip-path="url(#id409)">
        <g
           id="g14292"
           clip-path="url(#id410)">
          <g
             id="g14294"
             transform="matrix(29.7555,0,0,24.7666,179.53,993.2234)">
            <use
               id="use14296"
               xlink:href="#id411"
               x="0"
               y="0"
               width="744.09448"
               height="1052.3622" />
          </g>
        </g>
      </g>
    </g>
    <g
       id="g14298"
       clip-path="url(#id412)"
       transform="matrix(1,0,0,-1,-184.69603,1814.5677)">
      <g
         id="g14300"
         clip-path="url(#id413)">
        <g
           id="g14302"
           clip-path="url(#id414)">
          <g
             id="g14304"
             transform="matrix(30.4652,0,0,18.219,221.58,994.991)">
            <use
               id="use14306"
               xlink:href="#id415"
               x="0"
               y="0"
               width="744.09448"
               height="1052.3622" />
          </g>
        </g>
      </g>
    </g>
    <g
       id="g14356"
       transform="matrix(38.1582,0,0,-10.6474,211.00396,817.27503)">
      <use
         id="use14358"
         xlink:href="#id416"
         x="0"
         y="0"
         width="744.09448"
         height="1052.3622" />
    </g>
  </g>
</svg>
